<svg width="114" height="75" viewBox="0 0 114 75" fill="none" xmlns="http://www.w3.org/2000/svg">
<rect width="114" height="75" fill="black"/>
<path d="M109.937 35.2832V37.5183C109.937 37.5183 110.049 39.0294 108.358 39.1184C108.207 39.1438 106.528 39.093 106.591 37.4548V4.53835C106.591 4.53835 106.465 3.00174 104.949 3.00174C104.949 3.00174 103.558 2.87474 102.48 4.79233C101.402 6.70991 101.026 8.18303 99.5729 8.18303C99.5729 8.18303 97.8435 8.38622 97.8685 6.83691V5.17331L92.4296 6.96391V13.3008C92.4296 14.8755 91.2642 22.6855 89.209 22.711C89.0711 22.7363 87.1287 23.003 87.066 21.0473C87.066 21.0473 87.066 14.3422 87.066 13.6818C87.1161 12.6913 86.3518 9.71963 83.908 10.0371L81.7024 10.4816V26.4318C81.7024 26.9272 81.5269 29.2764 78.9203 29.378C78.6822 29.4162 76.1383 29.3146 76.1383 26.8128V16.4375C76.1383 16.4375 76.0129 14.5834 77.8426 14.4564L77.9053 11.7642C77.9053 11.7642 72.3412 13.0468 69.747 17.7836C69.4338 18.1266 68.7947 18.4186 68.3561 18.4186C68.0929 18.4186 66.8396 18.3424 66.7771 17.0725C66.7771 16.7677 66.7771 15.3454 66.7771 15.3454L57.6162 18.4186C57.6162 18.4186 54.0196 19.5743 54.0196 23.2824C54.0196 23.2824 54.0196 25.8477 55.5986 27.0668L61.9773 31.9306C61.9773 31.9306 63.0676 32.718 62.5412 34.0387C62.4661 34.2673 61.7267 35.7912 60.1978 35.8292C59.897 35.8674 58.9321 35.8292 58.3681 34.3562C58.3681 34.3562 57.8669 32.4385 56.2251 33.0101C56.2251 33.0101 53.1549 34.1022 52.9419 34.1657C52.7288 34.2291 50.9243 34.5466 50.9243 32.375V25.2C50.9243 24.6667 50.2726 21.6315 47.7662 21.7458C47.7662 21.7458 46.3126 21.8729 45.0468 22.457V25.5937C45.0468 25.5937 46.7512 25.3397 46.7512 27.5748V38.3945C46.7512 38.3945 46.8263 41.0995 44.0318 41.1503C41.7008 41.1248 41.3124 38.8644 41.3124 38.585C41.2872 37.0484 41.375 4.05577 41.375 4.05577L35.7984 6.26544L35.8609 29.8987C35.8609 29.8987 35.5226 37.5817 33.3922 40.5279C32.7656 41.3788 30.6102 41.3788 30.4222 39.4994V27.3334L24.9834 29.0606V33.9879C24.9834 34.8134 24.2314 44.6045 21.4494 44.4521C21.0985 44.4648 20.3466 44.071 20.3466 42.3948L20.3842 30.4702L15.0581 32.3877C15.0581 32.3877 15.008 38.9406 14.9954 39.3089C14.8326 41.417 15.1208 50.9033 8.9301 50.9033C8.9301 50.9033 7.41375 50.9667 7.41375 49.1127V22.5966C7.41375 22.5966 7.5892 19.5996 9.88252 18.5583C9.88252 18.5583 12.226 17.7075 12.7272 17.5297C13.2285 17.3519 15.1334 17.5297 15.1334 19.6377V26.3684L21.8379 24.2603V16.5137C21.8379 13.885 19.2689 11.4848 17.2888 12.0944C15.3088 12.704 7.01274 15.2692 6.67437 15.4216C6.33601 15.574 2 17.2757 2 22.0887L2.06266 53.3415C2.06266 53.3415 2.25064 56.4782 5.47131 56.4147C5.47131 56.4147 6.42373 56.4147 7.94009 55.5766C7.94009 55.5766 11.6746 53.5067 11.9252 53.4051C12.1758 53.2907 14.206 52.6303 14.2687 55.4496V73L20.3967 71.0188V55.4624C20.3967 54.4083 21.1487 49.1761 23.8054 47.0046C23.9683 46.865 25.2466 46.0267 26.3994 47.576C27.5398 49.1381 28.5424 49.3666 28.5424 49.3666C28.5424 49.3666 29.7831 49.9254 30.8858 48.0205C30.9485 47.8936 32.8784 44.6425 32.9661 44.5029C33.0538 44.3505 33.342 43.9188 34.1692 43.9949C34.1692 43.9949 36.1868 43.868 35.8735 46.7506C35.8735 46.7506 45.2724 43.8552 46.0494 43.4234C46.1747 43.3726 49.7588 41.9123 51.9268 38.5596C51.9268 38.5596 52.566 37.5945 53.3805 37.658C53.5309 37.658 55.5235 37.7849 54.9595 40.4771C54.9595 40.4771 64.0701 37.658 64.5714 37.404C65.6617 36.9468 68.4939 35.7658 68.4312 32.4132C68.4688 31.4227 68.1931 29.6828 66.7895 28.4383C66.7144 28.3621 60.5236 23.7396 60.4735 23.7015C59.9346 23.2316 59.659 22.1903 60.5362 21.0728C60.5362 21.0728 61.2254 20.0441 62.2406 20.1076C62.2406 20.1076 63.0175 20.0696 64.1955 21.6442C64.3584 21.8093 65.2356 22.9903 65.8372 23.1174C65.8372 23.1174 66.3509 23.2824 66.9775 22.6729C68.5189 21.3141 69.321 21.2633 69.321 21.2633C69.321 21.2633 71.5391 20.6283 71.5391 23.1808V28.5653C71.5391 29.7463 73.068 33.3529 76.5394 33.1751C76.5394 33.1751 77.7423 33.0481 78.8827 32.7306L82.6172 31.5116C82.6172 31.5116 87.3041 30.0892 88.9332 27.0286C88.9332 27.0286 89.7103 25.4921 90.8256 25.4921C90.8256 25.4921 92.7931 25.2381 92.5926 28.2478L97.906 26.4572V13.4405C97.906 13.4405 97.7556 11.9039 99.5477 11.9039C101.315 11.9039 101.252 13.3135 101.252 13.3135V40.2105C101.252 40.9724 102.029 43.3218 104.598 43.2837C104.598 43.2837 111.804 43.2202 111.804 37.0103V34.6355L109.937 35.2832Z" fill="white"/>
<path d="M27.6277 19.6629C29.6077 19.6629 31.1993 18.0375 31.1993 16.0436C31.1993 14.0371 29.5952 12.4243 27.6277 12.4243C25.6476 12.4243 24.056 14.0498 24.056 16.0436C24.056 18.0375 25.6602 19.6629 27.6277 19.6629Z" fill="white"/>
<path fill-rule="evenodd" clip-rule="evenodd" d="M110.777 5.0591C110.777 6.11313 109.962 6.7862 109.035 6.7862C108.12 6.7862 107.293 6.11313 107.293 5.0591C107.293 4.00507 108.107 3.33201 109.035 3.33201C109.962 3.33201 110.777 4.01777 110.777 5.0591ZM110.325 5.0464C110.325 4.25905 109.749 3.68758 109.035 3.68758C108.32 3.68758 107.744 4.25905 107.744 5.0464C107.744 5.83375 108.308 6.40522 109.035 6.40522C109.749 6.40522 110.325 5.84646 110.325 5.0464Z" fill="white"/>
<path fill-rule="evenodd" clip-rule="evenodd" d="M109.131 5.19892H108.831V6.02436H108.358V4.09408H109.257C109.857 4.09408 110.188 4.24647 110.188 4.66554C110.188 5.02112 109.92 5.16081 109.604 5.18621L110.188 6.02436H109.667L109.131 5.19892ZM109.226 4.38616H108.831V4.89412H109.241C109.588 4.89412 109.715 4.80523 109.715 4.62745C109.715 4.44965 109.573 4.38616 109.226 4.38616Z" fill="white"/>
</svg>
